<svg width="49" height="62" viewBox="0 0 49 62" fill="none" xmlns="http://www.w3.org/2000/svg">
<path d="M6.49609 30.8357C6.49609 29.1955 5.15359 27.8669 3.49609 27.8669C1.83859 27.8669 0.496094 29.1955 0.496094 30.8357V47.2752C0.496094 49.1677 1.25359 50.9787 2.60359 52.3146L10.0961 59.7291C10.9961 60.6197 12.2186 61.1169 13.4936 61.1169H18.4961C20.4836 61.1169 22.0961 59.5212 22.0961 57.5544V51.6986C22.0961 49.4943 21.2111 47.3791 19.6361 45.8205L14.1986 40.4396C13.2611 39.5119 11.7386 39.5119 10.8011 40.4396C9.86359 41.3673 9.86359 42.874 10.8011 43.8017L14.3411 47.3048C15.1661 48.1212 15.0311 49.472 14.0636 50.1103C13.3361 50.5927 12.3611 50.4962 11.7386 49.8802L7.89859 46.0877C6.99859 45.197 6.49609 43.9873 6.49609 42.7255V30.8357ZM42.4961 30.8357V42.7255C42.4961 43.9873 41.9936 45.197 41.0936 46.0877L37.2611 49.8802C36.6386 50.4962 35.6636 50.5927 34.9361 50.1103C33.9686 49.472 33.8336 48.1138 34.6586 47.3048L38.1986 43.8017C39.1361 42.874 39.1361 41.3673 38.1986 40.4396C37.2611 39.5119 35.7386 39.5119 34.8011 40.4396L29.3636 45.8205C27.7886 47.3791 26.9036 49.4943 26.9036 51.6986V57.5544C26.9036 59.5212 28.5161 61.1169 30.5036 61.1169H35.5061C36.7811 61.1169 38.0036 60.6197 38.9036 59.7291L46.3961 52.3146C47.7461 50.9787 48.5036 49.1677 48.5036 47.2752L48.4961 30.8357C48.4961 29.1955 47.1536 27.8669 45.4961 27.8669C43.8386 27.8669 42.4961 29.1955 42.4961 30.8357Z" fill="#333333"/>
<path fill-rule="evenodd" clip-rule="evenodd" d="M16.843 0.907254C19.3644 1.08995 21.9916 2.31905 24.5066 4.80657C27.0209 2.31974 29.6458 1.09299 32.1649 0.914351C35.0078 0.712726 37.5212 1.86177 39.3397 3.67465C42.9147 7.23901 44.0374 13.6887 39.6012 18.1251C39.5863 18.14 39.5708 18.1546 39.5552 18.1688L25.3697 31.0181C24.8798 31.4617 24.1333 31.4617 23.6434 31.0181L9.45794 18.1688C9.44226 18.1546 9.42693 18.14 9.41197 18.1251C4.95252 13.6656 6.06922 7.21515 9.6561 3.65357C11.479 1.84354 13.9974 0.701077 16.843 0.907254Z" fill="#333333"/>
</svg>
