<svg width="28" height="24" viewBox="0 0 28 24" fill="none" xmlns="http://www.w3.org/2000/svg">
<path d="M12.138 19.2734L12.374 18.6065H11.6667H3.11111C1.64417 18.6065 0.5 17.4859 0.5 16.1671V2.93947C0.5 1.62067 1.64417 0.5 3.11111 0.5H24.8889C26.3558 0.5 27.5 1.62067 27.5 2.93947V16.1671C27.5 17.4859 26.3558 18.6065 24.8889 18.6065H16.3333H15.626L15.862 19.2734L16.3821 20.7431L16.5 21.0763H16.8535H20.2222C20.8336 21.0763 21.2778 21.5356 21.2778 22.046C21.2778 22.5565 20.8336 23.0157 20.2222 23.0157H7.77778C7.16639 23.0157 6.72222 22.5565 6.72222 22.046C6.72222 21.5356 7.16639 21.0763 7.77778 21.0763H11.1465H11.5L11.6179 20.7431L12.138 19.2734ZM25.3889 2.93947V2.43947H24.8889H3.11111H2.61111V2.93947V13.2276V13.7276H3.11111H24.8889H25.3889V13.2276V2.93947Z" stroke="#333333"/>
</svg>
