<svg width="26" height="22" viewBox="0 0 26 22" fill="none" xmlns="http://www.w3.org/2000/svg">
<path d="M25.5 18.4767C25.5 19.874 24.2922 21.0562 22.75 21.0562L3.25 21.0562C1.70782 21.0562 0.499998 19.874 0.499998 18.4767L0.499999 15.3973C0.499999 14 1.70782 12.8178 3.25 12.8178L22.75 12.8178C24.2922 12.8178 25.5 14 25.5 15.3973L25.5 18.4767ZM7.32556 18.1165C7.6497 18.4236 8.08384 18.5918 8.53125 18.5918C8.97865 18.5918 9.4128 18.4236 9.73694 18.1165C10.062 17.8085 10.25 17.3848 10.25 16.937C10.25 16.4891 10.062 16.0655 9.73694 15.7575C9.4128 15.4503 8.97865 15.2822 8.53125 15.2822C8.08384 15.2822 7.6497 15.4503 7.32556 15.7575C7.00051 16.0655 6.8125 16.4891 6.8125 16.937C6.8125 17.3848 7.00051 17.8085 7.32556 18.1165ZM6.08069 18.1165C6.40574 17.8085 6.59375 17.3848 6.59375 16.937C6.59375 16.4891 6.40574 16.0655 6.08069 15.7575C5.75655 15.4503 5.3224 15.2822 4.875 15.2822C4.42759 15.2822 3.99345 15.4503 3.66931 15.7575C3.34426 16.0655 3.15625 16.4891 3.15625 16.937C3.15625 17.3848 3.34426 17.8085 3.66931 18.1165C3.99345 18.4236 4.42759 18.5918 4.875 18.5918C5.3224 18.5918 5.75655 18.4236 6.08069 18.1165ZM25.5 6.15894C25.5 7.55625 24.2922 8.73838 22.75 8.73838L3.25 8.73838C1.70782 8.73838 0.5 7.55624 0.5 6.15893L0.5 3.07949C0.5 1.68218 1.70783 0.50005 3.25 0.50005L22.75 0.500051C24.2922 0.500051 25.5 1.68219 25.5 3.07949L25.5 6.15894ZM7.32556 5.79872C7.6497 6.10585 8.08384 6.27401 8.53125 6.27401C8.97865 6.27401 9.4128 6.10585 9.73694 5.79872C10.062 5.49073 10.25 5.06706 10.25 4.61921C10.25 4.17137 10.062 3.7477 9.73694 3.43971C9.4128 3.13258 8.97865 2.96442 8.53125 2.96442C8.08385 2.96442 7.6497 3.13258 7.32556 3.43971C7.00051 3.7477 6.8125 4.17137 6.8125 4.61921C6.8125 5.06706 7.00051 5.49073 7.32556 5.79872ZM5.67444 5.79872C5.99949 5.49073 6.1875 5.06706 6.1875 4.61921C6.1875 4.17137 5.99949 3.7477 5.67444 3.43971C5.3503 3.13258 4.91616 2.96442 4.46875 2.96442C4.02135 2.96442 3.5872 3.13258 3.26306 3.43971C2.93801 3.7477 2.75 4.17137 2.75 4.61921C2.75 5.06706 2.93801 5.49072 3.26306 5.79872C3.5872 6.10585 4.02134 6.27401 4.46875 6.27401C4.91616 6.27401 5.3503 6.10585 5.67444 5.79872Z" stroke="#333333"/>
</svg>
