<svg width="24" height="23" viewBox="0 0 24 23" fill="none" xmlns="http://www.w3.org/2000/svg">
<path d="M23.7094 5.09699L23.2307 5.2416C23.4048 5.81779 23.5 6.42054 23.5 7.04248C23.5 10.6281 20.3977 13.585 16.5 13.585C15.6587 13.585 14.851 13.4485 14.1073 13.1938L13.8225 13.0962L13.6031 13.3023L5.09055 21.2955C4.59074 21.7648 3.90328 22.0359 3.18281 22.0359C1.67103 22.0359 0.5 20.8925 0.5 19.5473C0.5 18.8986 0.77628 18.2674 1.27507 17.799L9.78757 9.80582L10.0321 9.57619L9.91237 9.26284C9.64729 8.56916 9.5 7.81964 9.5 7.04248C9.5 3.45683 12.6023 0.5 16.5 0.5C17.1713 0.5 17.8213 0.590537 18.4416 0.755623C18.4818 0.766728 18.5021 0.782774 18.5123 0.793547C18.5235 0.80523 18.5311 0.819447 18.5348 0.836317C18.5417 0.867656 18.5372 0.922441 18.4781 0.977976L14.8781 4.35836C14.6412 4.58078 14.5 4.89137 14.5 5.22024V7.74672C14.5 8.43938 15.0915 8.95097 15.75 8.95097H18.4406C18.7611 8.95097 19.0767 8.83009 19.3126 8.6086L22.9126 5.22821C22.9759 5.1687 23.0602 5.14931 23.1298 5.1627C23.1933 5.17491 23.2198 5.20583 23.2312 5.24316L23.7094 5.09699ZM23.7094 5.09699C23.8969 5.71761 24 6.36904 24 7.04248C24 10.9334 20.6437 14.085 16.5 14.085C15.6047 14.085 14.7422 13.9397 13.9453 13.6668L23.7094 5.09699Z" stroke="white"/>
</svg>
