<svg width="73" height="68" viewBox="0 0 73 68" fill="none" xmlns="http://www.w3.org/2000/svg">
<path d="M24.8266 18.3882C11.2681 18.3882 0.277344 29.4939 0.277344 43.1943C0.277344 56.8948 11.2681 68.0005 24.8266 68.0005C38.3851 68.0005 49.3759 56.8948 49.3759 43.1943C49.3759 29.4939 38.3851 18.3882 24.8266 18.3882ZM24.8266 61.5989C14.7604 61.5989 6.61264 53.3679 6.61264 43.1943C6.61264 33.0228 14.7584 24.7898 24.8266 24.7898C34.8928 24.7898 43.0406 33.0208 43.0406 43.1943C43.0406 53.3659 34.8948 61.5989 24.8266 61.5989ZM24.8266 30.3912C17.8291 30.3912 12.156 36.1236 12.156 43.1943C12.156 50.2651 17.8291 55.9975 24.8266 55.9975C31.8241 55.9975 37.4972 50.2651 37.4972 43.1943C37.4972 36.1236 31.8241 30.3912 24.8266 30.3912ZM24.8266 49.5959C21.3333 49.5959 18.4913 46.7242 18.4913 43.1943C18.4913 39.6645 21.3333 36.7928 24.8266 36.7928C28.3199 36.7928 31.1619 39.6645 31.1619 43.1943C31.1619 46.7242 28.3199 49.5959 24.8266 49.5959Z" fill="#333333"/>
<path d="M23.7695 50.835L20.5283 47.6815L61.0915 8.21622C61.9865 7.3454 63.4377 7.3454 64.3327 8.21622C65.2278 9.08704 65.2278 10.4989 64.3327 11.3697L23.7695 50.835Z" fill="#333333" stroke="#333333" stroke-linejoin="round"/>
<path d="M51.5547 16.5039L49.4251 10.288L57.9435 2.00018L60.0731 8.21606L51.5547 16.5039Z" stroke="#333333" stroke-width="3" stroke-linejoin="round"/>
<path d="M55.8145 20.6475L62.2033 22.7194L70.7217 14.4316L64.3329 12.3596L55.8145 20.6475Z" stroke="#333333" stroke-width="3" stroke-linejoin="round"/>
</svg>
