<svg width="27" height="21" viewBox="0 0 27 21" fill="none" xmlns="http://www.w3.org/2000/svg">
<path d="M4.55 5.14407C4.55 3.92044 5.06005 2.7417 5.97649 1.86869C6.89377 0.994893 8.14282 0.5 9.45 0.5C10.7572 0.5 12.0062 0.994893 12.9235 1.86869C13.84 2.7417 14.35 3.92044 14.35 5.14407C14.35 6.3677 13.84 7.54644 12.9235 8.41945C12.0062 9.29325 10.7572 9.78814 9.45 9.78814C8.14282 9.78814 6.89377 9.29325 5.97649 8.41945C5.06005 7.54644 4.55 6.3677 4.55 5.14407ZM0.5 19.3827C0.5 15.7229 3.61955 12.7172 7.52203 12.7172H11.378C15.2805 12.7172 18.4 15.7229 18.4 19.3827C18.4 19.743 18.0859 20.0763 17.647 20.0763H1.25297C0.814082 20.0763 0.5 19.743 0.5 19.3827ZM25.7048 20.0763H20.6472C20.7165 19.8264 20.7542 19.5631 20.7542 19.2903V18.9688C20.7542 16.8199 19.9216 14.8567 18.5553 13.3602H20.1994C23.7009 13.3602 26.5 16.0603 26.5 19.3425C26.5 19.7259 26.1659 20.0763 25.7048 20.0763ZM18.225 9.78814C17.2087 9.78814 16.2808 9.44866 15.5537 8.8867C16.2793 7.80783 16.7 6.52289 16.7 5.14407C16.7 4.14677 16.479 3.19692 16.0805 2.33926C16.7094 1.9888 17.4414 1.78602 18.225 1.78602C20.5834 1.78602 22.45 3.59818 22.45 5.78708C22.45 7.97598 20.5834 9.78814 18.225 9.78814Z" stroke="#333333"/>
</svg>
