<svg width="26" height="25" viewBox="0 0 26 25" fill="none" xmlns="http://www.w3.org/2000/svg">
<path d="M6.09097 0.552325L6.09117 0.552274C6.82949 0.362239 7.57524 0.703961 7.8833 1.31063L7.91618 1.38498L9.94734 5.9777L9.94743 5.97791C10.1957 6.53856 10.031 7.19348 9.51048 7.59437L7.00709 9.52234L6.68021 9.77409L6.86533 10.1428C8.61023 13.6183 11.5929 16.425 15.2688 18.0632L15.6068 18.2138L15.8496 17.9346L17.9011 15.5761L17.9029 15.574C18.3217 15.087 19.0532 14.9073 19.692 15.1583L19.6922 15.1584L24.567 17.072L24.568 17.0724C25.2887 17.3535 25.6395 18.0729 25.4475 18.735L25.4475 18.7352L24.2292 22.9438C24.2291 22.944 24.2291 22.9443 24.229 22.9446C24.0517 23.5488 23.4564 23.9956 22.749 23.9956C10.4339 23.9956 0.5 14.5949 0.5 3.06289C0.5 2.44919 0.940807 1.87793 1.62313 1.70032C1.62334 1.70027 1.62355 1.70021 1.62375 1.70016L6.09097 0.552325Z" stroke="#333333"/>
</svg>
