<svg width="63" height="72" viewBox="0 0 63 72" fill="none" xmlns="http://www.w3.org/2000/svg">
<path d="M22.546 0.762889C23.6254 -0.263623 25.3 -0.249561 26.3795 0.776951C30.1991 4.41896 33.7835 8.3422 37.1326 12.5889C38.6549 10.564 40.3848 8.35626 42.2531 6.55635C43.3464 5.51578 45.0348 5.51578 46.1281 6.57042C50.9165 11.2108 54.9714 17.3418 57.8223 23.1633C60.6317 28.9006 62.5 34.7643 62.5 38.8985C62.5 56.8414 48.6884 72 31.5 72C14.1179 72 0.5 56.8273 0.5 38.8844C0.5 33.4847 2.96339 26.8897 6.78304 20.365C10.6442 13.7419 16.0969 6.83759 22.546 0.762889ZM31.7353 58.5007C35.2366 58.5007 38.3366 57.5163 41.2567 55.5477C47.083 51.4135 48.6469 43.1452 45.1455 36.6486C44.5228 35.3831 42.9312 35.2987 42.0317 36.3674L38.5442 40.4875C37.6308 41.5562 35.9839 41.5281 35.1259 40.4172C32.8424 37.4642 28.7598 32.191 26.4348 29.1959C25.5629 28.0709 23.9022 28.0569 23.0165 29.1818C18.3388 35.1581 15.9862 38.9266 15.9862 43.1592C16 52.7916 23.0027 58.5007 31.7353 58.5007Z" fill="#333333"/>
<g clip-path="url(#clip0_328_411)">
<path fill-rule="evenodd" clip-rule="evenodd" d="M22.1462 27.4879C25.2279 27.7163 28.439 29.2527 31.5128 32.3621C34.5859 29.2536 37.7941 27.7201 40.8729 27.4968C44.3477 27.2448 47.4195 28.6811 49.6421 30.9472C54.0116 35.4026 55.3838 43.4648 49.9618 49.0102C49.9435 49.0289 49.9247 49.0472 49.9055 49.0649L32.5677 65.1265C31.969 65.681 31.0566 65.681 30.4578 65.1265L13.12 49.0649C13.1008 49.0472 13.0821 49.0289 13.0638 49.0102C7.61339 43.4359 8.97824 35.3728 13.3622 30.9208C15.5901 28.6583 18.6682 27.2302 22.1462 27.4879Z" fill="white"/>
</g>
<defs>
<clipPath id="clip0_328_411">
<rect width="44" height="45" fill="white" transform="translate(9.5 24)"/>
</clipPath>
</defs>
</svg>
