<svg width="16" height="16" viewBox="0 0 16 16" fill="none" xmlns="http://www.w3.org/2000/svg">
<path d="M1.07192 9.01161L0.25836 8.23484C-0.08612 7.90594 -0.08612 7.37409 0.25836 7.04869L7.37884 0.246678C7.72332 -0.0822259 8.28035 -0.0822259 8.62116 0.246678L15.7416 7.04519C16.0861 7.37409 16.0861 7.90594 15.7416 8.23134L14.9281 9.00811C14.5799 9.34052 14.0119 9.33352 13.6711 8.99412L9.46771 4.78135V14.8374C9.46771 15.3028 9.07559 15.6772 8.58818 15.6772H7.41548C6.92808 15.6772 6.53596 15.3028 6.53596 14.8374V4.78135L2.32891 8.99762C1.98809 9.34052 1.42006 9.34752 1.07192 9.01161Z" fill="#333333"/>
</svg>
